# xmcd CD database file
#
# Track frame offsets:
#	150
#	14768
#	32655
#	50106
#	61968
#	79380
#	98361
#	112887
#	131855
#	152402
#	167955
#	185992
#	201801
#	214762
#	230674
#	247904
#
# Disc length: 3514 seconds
#
# Revision: 0
# Processed by: cddbd v1.5.2PL0 Copyright (c) Steve Scherf et al.
# Submitted via: CDex 1.70beta2
#
DISCID=e10db810
DTITLE=Chakra's Dream -  CALM
DYEAR=1900
DGENRE=New Age
TTITLE0=A sense of calm
TTITLE1=Pleasing thoughts
TTITLE2=Moving slowly
TTITLE3=Copyng
TTITLE4=Well balanced
TTITLE5=The lavander bath
TTITLE6=Listen to the quiet
TTITLE7=Deeper calm
TTITLE8=Breathe deeply
TTITLE9=Calm for life
TTITLE10=Take it easy
TTITLE11=Relax the tension
TTITLE12=Instant calm
TTITLE13=Essential meditation
TTITLE14=Banish anxiety
TTITLE15=Letting go
EXTD=
EXTT0=
EXTT1=
EXTT2=
EXTT3=
EXTT4=
EXTT5=
EXTT6=
EXTT7=
EXTT8=
EXTT9=
EXTT10=
EXTT11=
EXTT12=
EXTT13=
EXTT14=
EXTT15=
PLAYORDER=
